<?xml version="1.0" standalone="no"?><!DOCTYPE svg PUBLIC "-//W3C//DTD SVG 1.1//EN" "http://www.w3.org/Graphics/SVG/1.1/DTD/svg11.dtd"><svg t="1498127535095" class="icon" style="" viewBox="0 0 1024 1024" version="1.1" xmlns="http://www.w3.org/2000/svg" p-id="3754" id="mx_n_1498127535095" xmlns:xlink="http://www.w3.org/1999/xlink" width="32" height="32"><defs><style type="text/css"></style></defs><path d="M960.225968 583.1382c0 3.304256-1.268952 6.608511-3.786388 9.125845-2.516413 2.51631-5.820804 3.786233-9.147709 3.786233L594.291005 596.050278l0 351.234503c0 3.282766-1.268952 6.608511-3.786388 9.147334-2.516413 2.494821-5.820804 3.764744-9.126219 3.764744L439.118681 960.196859c-3.304391 0-6.608782-1.269923-9.126219-3.764744-2.516413-2.538823-3.786388-5.821589-3.786388-9.147334L426.206075 596.050278 76.685615 596.050278c-3.304391 0-6.608782-1.269923-9.126219-3.786233-2.516413-2.517333-3.786388-5.843078-3.786388-9.147334L63.773009 440.884312c0-3.304256 1.269975-6.608511 3.786388-9.125845 2.516413-2.51631 5.821827-3.786233 9.126219-3.786233l349.520459 0L426.206075 76.715219c0-3.304256 1.269975-6.608511 3.786388-9.125845s5.821827-3.786233 9.126219-3.786233l142.259717 0.021489c3.304391 0 6.609806 1.24741 9.126219 3.786233 2.538927 2.51631 3.786388 5.821589 3.786388 9.125845l0 351.234503 353.022357 0c3.304391 0 6.609806 1.269923 9.126219 3.786233 2.517436 2.517333 3.786388 5.843078 3.786388 9.148357L960.225968 583.1382z" p-id="3755" fill="#ffffff"></path></svg>