<?xml version="1.0" standalone="no"?><!DOCTYPE svg PUBLIC "-//W3C//DTD SVG 1.1//EN" "http://www.w3.org/Graphics/SVG/1.1/DTD/svg11.dtd"><svg t="1498123673822" class="icon" style="" viewBox="0 0 1024 1024" version="1.1" xmlns="http://www.w3.org/2000/svg" p-id="2779" xmlns:xlink="http://www.w3.org/1999/xlink" width="64" height="64"><defs><style type="text/css"></style></defs><path d="M807.231451 613.125339 936.002598 480.335693C957.442502 458.302765 964.658283 426.434934 954.96775 397.085448 945.072888 367.734934 920.128294 346.591133 889.68863 341.858706L723.884355 316.42447C696.053242 314.040782 672.553464 296.880075 661.285354 272.976376L586.252432 112.166312C572.920298 83.360582 543.646443 64.735125 511.901984 64.735125 480.362891 64.735125 451.228021 83.359555 437.827432 112.166312L361.968901 274.509995C350.561805 297.594461 327.610706 313.972941 300.536746 316.32168L134.390196 341.858704C103.878965 346.52432 78.866954 367.734933 68.972092 397.154317 59.352087 426.366064 66.637361 458.238005 88.076228 480.20001L218.634466 615.066003C218.769302 615.066003 218.634466 615.131789 218.769302 615.203741 231.277901 628.585906 238.972867 646.5936 238.972867 666.378522 238.972867 669.542382 238.560062 672.474966 238.284168 675.472309L207.638101 863.929664C202.623253 895.116 215.472053 925.863422 241.172763 944.214432 266.455482 962.123448 301.502376 963.857506 328.025584 949.15244L471.841278 871.693355C483.522192 864.510426 497.333512 860.321754 512.036819 860.321754 525.163587 860.321754 537.463709 863.792955 548.25056 869.651957L695.777346 949.085627C708.013162 955.792642 721.754987 959.263843 735.563194 959.263843 752.531741 959.263843 768.887304 954.122312 782.906061 944.213405 808.605734 925.861368 821.387115 895.111888 816.299662 863.928637L787.029957 683.536146C787.029957 682.719997 787.166867 681.937768 787.029957 681.121621 786.068475 676.147635 785.519797 671.142814 785.519797 665.90055 785.519797 645.400213 793.763442 626.846707 807.095574 613.256907 807.096614 613.259994 807.096614 613.19421 807.231451 613.125339" p-id="2780" fill="#f4ea2a"></path></svg>