<?xml version="1.0" standalone="no"?><!DOCTYPE svg PUBLIC "-//W3C//DTD SVG 1.1//EN" "http://www.w3.org/Graphics/SVG/1.1/DTD/svg11.dtd"><svg t="1498188440902" class="icon" style="" viewBox="0 0 1024 1024" version="1.1" xmlns="http://www.w3.org/2000/svg" p-id="3694" xmlns:xlink="http://www.w3.org/1999/xlink" width="48" height="48"><defs><style type="text/css"></style></defs><path d="M493.98 853.758l-3.962-4.66-1.088-5.748c-3.34-18.020-4.971-36.739-4.971-55.846 0-98.023 45.205-185.248 115.887-238.609-36.273-59.031-89.168-104.624-150.917-128.393l-45.282-17.632 42.020-23.69c49.942-28.273 81.789-76.585 81.789-130.49-0.156-85.051-79.303-156.198-180.511-156.432-101.052 0.234-180.201 71.38-180.511 156.509 0 53.827 32.001 102.14 81.943 130.49l41.866 23.69-45.361 17.554c-116.509 44.895-202.492 167.461-202.337 313.020 0 20.194 1.632 39.923 4.738 59.031 73.711 85.828 180.821 139.266 299.738 139.266 64.624 0 125.285-15.613 179.657-43.807-11.807-10.719-22.835-22.060-32.7-34.254z" p-id="3695" fill="#f4f4f4"></path><path d="M831.932 555.807l-45.205-17.398 41.866-23.769c36.117-20.661 58.876-55.070 58.876-93.905 0-60.74-56.855-112.391-130.334-112.547-73.711 0.156-130.645 51.808-130.8 112.547 0 38.836 23.069 73.245 59.031 93.905l42.020 23.769-45.205 17.398c-6.524 2.563-12.893 5.669-19.263 8.622-7.147 3.728-14.137 7.69-20.972 12.35-6.757 4.427-13.593 9.244-19.963 14.525-53.671 44.429-89.324 115.421-89.324 196.123 0 14.448 1.088 28.506 3.34 42.176 10.33 11.807 21.36 22.757 33.089 32.622 6.213 5.438 12.893 10.33 19.573 15.146 6.834 4.894 13.67 9.554 20.972 13.67 43.574 26.098 93.905 40.622 147.578 40.622 87.381 0 166.297-39.147 221.055-102.061 2.097-13.67 3.34-27.729 3.34-42.176-0.078-107.965-64.080-198.375-149.675-231.618z" p-id="3696" fill="#f4f4f4"></path></svg>