<?xml version="1.0" standalone="no"?><!DOCTYPE svg PUBLIC "-//W3C//DTD SVG 1.1//EN" "http://www.w3.org/Graphics/SVG/1.1/DTD/svg11.dtd"><svg t="1498189043686" class="icon" style="" viewBox="0 0 1025 1024" version="1.1" xmlns="http://www.w3.org/2000/svg" p-id="6740" xmlns:xlink="http://www.w3.org/1999/xlink" width="48.046875" height="48"><defs><style type="text/css"></style></defs><path d="M614.421331 844.652578l56.944127 23.912646 60.355304-143.728744-56.944127-23.912646c-57.762947-24.254967-57.506636-63.398356 0.347483-87.070172l57.258925-23.387981-58.980856-144.294694-57.200438 23.367339c-57.95389 23.675257-85.549506-4.188712-61.205088-61.817483 0.070529-0.16514 0.022363-0.280394 0.070529-0.402529l23.776749-56.617287-143.668537-60.331221-23.998656 57.150552c-24.334097 57.489433-63.391476 57.267526-87.023727-0.620996l-23.387981-57.207319-144.274051 58.939571 23.350137 57.238283c23.673536 57.905724-4.174951 85.461776-61.836405 61.246373L60.998663 443.17954 0.641639 586.910005l57.006054 23.938449c57.661455 24.213682 57.487713 63.388035-0.445535 87.071893L0.00344 721.287685l58.924089 144.318777 57.236563-23.396582c57.857559-23.61849 85.365444 4.111303 61.375389 61.697068l-24.014138 57.190117 143.668537 60.331221 23.776749-56.617287c0.051606-0.122135 0.187503-0.213306 0.237389-0.332001 24.100149-57.735424 63.296864-57.503195 87.008245 0.369845l23.350137 57.240003 144.334258-58.963654-23.406904-57.2142C528.892467 847.984626 556.658384 820.397611 614.421331 844.652578L614.421331 844.652578zM313.363858 781.65159c-69.453497-29.164448-102.108252-109.138752-72.950685-178.571607 29.155847-69.431134 109.11811-102.113413 178.571607-72.948965 69.431134 29.155847 102.108252 109.138752 72.950685 178.568167C462.776178 778.13548 382.793272 810.809157 313.363858 781.65159L313.363858 781.65159z" p-id="6741" fill="#f4f4f4"></path><path d="M980.316976 314.315134l43.686465 0 0-110.267211-43.686465 0c-44.314342 0-54.867833-25.596732-23.61849-56.878759l30.934545-30.934545-77.982301-77.951337-30.903581 30.905301c-31.312991 31.311271-56.940686 20.697572-56.846075-23.554842 0-0.125575-0.063648-0.190943-0.063648-0.283835L821.837427 1.912874l-110.219045 0 0 43.844724c-0.125575 44.157802-25.658659 54.711294-56.923484 23.429266l-30.919063-30.903581-77.949617 77.949617 30.903581 30.934545c31.295789 31.282027 20.68037 56.878759-23.553122 56.878759L509.440327 204.046204l0 110.26549 43.734631 0c44.236932 0 54.84891 25.596732 23.554842 56.909723l-30.903581 30.903581 77.953057 77.98058 30.919063-30.932824c31.263105-31.251063 56.797909-20.697572 56.923484 23.427546l0 43.875688 110.220765 0 0-43.435314c0-0.092891 0.063648-0.190943 0.063648-0.283835-0.094612-44.252414 25.533084-54.835149 56.844355-23.587526l30.905301 30.934545 77.982301-77.98058L956.701927 371.221417C925.449143 339.910146 936.002634 314.315134 980.316976 314.315134L980.316976 314.315134zM766.721884 355.675875c-53.281799 0-96.479724-43.215127-96.479724-96.481444 0-53.264597 43.197925-96.479724 96.479724-96.479724 53.264597 0 96.481444 43.213407 96.481444 96.479724C863.201607 312.462468 819.98648 355.675875 766.721884 355.675875L766.721884 355.675875z" p-id="6742" fill="#f4f4f4"></path></svg>