<?xml version="1.0" standalone="no"?><!DOCTYPE svg PUBLIC "-//W3C//DTD SVG 1.1//EN" "http://www.w3.org/Graphics/SVG/1.1/DTD/svg11.dtd"><svg t="1498123664041" class="icon" style="" viewBox="0 0 1024 1024" version="1.1" xmlns="http://www.w3.org/2000/svg" p-id="2599" xmlns:xlink="http://www.w3.org/1999/xlink" width="64" height="64"><defs><style type="text/css"></style></defs><path d="M771.83177 924.066987c-5.340635 0-10.518564-1.299599-15.391549-3.859911L522.623965 797.281395c-6.525624-3.432169-14.721283-3.432169-21.248953 0l-233.815233 122.924657c-4.871961 2.561335-10.050913 3.859911-15.391549 3.859911-9.749038 0-18.999726-4.340865-25.382087-11.911284-6.323009-7.498788-8.880251-17.019629-7.202029-26.806529l44.655036-260.357749c1.270946-7.40669-1.183965-14.96176-6.566556-20.208251L68.511373 420.397722c-9.078773-8.849552-12.284791-21.837354-8.366551-33.895995 3.918239-12.057617 14.146185-20.679995 26.691919-22.502503l261.413801-37.986149c7.438413-1.080611 13.863752-5.749958 17.190521-12.489452L482.349703 76.641541c5.610788-11.368932 16.972557-18.431791 29.650297-18.431791s24.038486 7.062859 29.650297 18.431791l116.907617 236.881059c3.326768 6.740518 9.753131 11.409864 17.191544 12.490475l261.413801 37.986149c12.546757 1.822508 22.774703 10.44591 26.691919 22.503527 3.918239 12.057617 0.712221 25.045419-8.366551 33.894971L766.327406 604.783173c-5.383614 5.246491-7.837502 12.801561-6.567579 20.208251l44.656059 260.357749c1.679245 9.7869-0.87902 19.306718-7.202029 26.806529C790.830473 919.725098 781.579785 924.066987 771.83177 924.066987zM512 784.426623c5.339612 0 10.659781 1.312902 15.385409 3.797489l233.81728 122.924657c3.388167 1.781576 6.964622 2.685155 10.629081 2.685155 6.626931 0 13.190417-3.092431 17.557888-8.274454 4.344958-5.154393 6.099928-11.716856 4.940522-18.48091l-44.656059-260.356726c-1.840928-10.728342 1.715061-21.669532 9.509585-29.267581l189.161221-184.385451c6.363941-6.203282 8.524141-14.953573 5.777587-23.405059-2.746554-8.452509-9.636474-14.261818-18.430768-15.538905l-261.413801-37.986149c-10.771321-1.564635-20.078291-8.326643-24.896017-18.08796L532.47431 81.170694c-3.933589-7.969509-11.586896-12.727882-20.47431-12.727882s-16.540721 4.757351-20.47431 12.727882L374.61705 318.051753c-4.816702 9.761318-14.123672 16.522302-24.896017 18.08796l-261.413801 37.986149c-8.794293 1.278109-15.684214 7.086395-18.430768 15.538905-2.746554 8.452509-0.586354 17.201777 5.777587 23.406083L264.815271 597.456301c7.794523 7.598049 11.349489 18.538215 9.508561 29.266557l-44.654013 260.357749c-1.160429 6.763031 0.594541 13.325493 4.939499 18.48091 4.367471 5.180999 10.930957 8.273431 17.557888 8.273431 3.665483 0 7.240915-0.903579 10.630105-2.685155l233.816257-122.924657C501.340219 785.739525 506.660388 784.426623 512 784.426623z" p-id="2600" fill="#2c2c2c"></path></svg>